<mxfile host="65bd71144e">
    <diagram id="DGs1Are1VR64PZLGCZHP" name="Page-1">
        <mxGraphModel dx="1092" dy="852" grid="1" gridSize="10" guides="1" tooltips="1" connect="1" arrows="1" fold="1" page="0" pageScale="1" pageWidth="850" pageHeight="1100" background="none" math="0" shadow="0">
            <root>
                <mxCell id="0"/>
                <mxCell id="1" parent="0"/>
                <mxCell id="node1" value="&lt;p style=&quot;margin:0px;margin-top:4px;text-align:center;&quot;&gt;&lt;b&gt;BaseEntity&lt;/b&gt;&lt;/p&gt;&lt;hr size=&quot;1&quot;/&gt;&lt;p style=&quot;margin:0 0 0 4px;line-height:1.6;&quot;&gt; id:  Long &lt;br/&gt; active:  Boolean &lt;br/&gt; createdAt:  LocalDateTime &lt;br/&gt; createdBy:  Long &lt;br/&gt; deleted:  Boolean &lt;br/&gt; updatedAt:  LocalDateTime &lt;br/&gt; uuid:  String &lt;/p&gt;" style="verticalAlign=top;align=left;overflow=fill;fontSize=12;fontFamily=Helvetica;html=1;rounded=1;shadow=1;comic=0;labelBackgroundColor=none;strokeWidth=2;fillColor=#E1D5E7;strokeColor=#9673A6;fontColor=#000000;" parent="1" vertex="1">
                    <mxGeometry x="400" y="50" width="200" height="180" as="geometry"/>
                </mxCell>
                <mxCell id="node8" value="&lt;p style=&quot;margin:0px;margin-top:4px;text-align:center;&quot;&gt;&lt;b&gt;Account&lt;/b&gt;&lt;/p&gt;&lt;hr size=&quot;1&quot;/&gt;&lt;p style=&quot;margin:0 0 0 4px;line-height:1.6;&quot;&gt; accountExpired:  boolean &lt;br/&gt; accountLocked:  boolean &lt;br/&gt; accountLockedByUser:  boolean &lt;br/&gt; biography:  String &lt;br/&gt; companyName:  String &lt;br/&gt; credentialsExpired:  boolean &lt;br/&gt; email:  String &lt;br/&gt; enabled:  boolean &lt;br/&gt; firstName:  String &lt;br/&gt; fullName:  String &lt;br/&gt; jobTitle:  String &lt;br/&gt; lastLogin:  LocalDateTime &lt;br/&gt; lastLoginTime:  LocalDateTime &lt;br/&gt; lastName:  String &lt;br/&gt; lastOtpSent:  LocalDateTime &lt;br/&gt; loginAttempts:  int &lt;br/&gt; oneTimePassword:  String &lt;br/&gt; password:  String &lt;br/&gt; phoneNumber:  String &lt;br/&gt; profilePhoto:  String &lt;br/&gt; publishBio:  boolean &lt;br/&gt; refreshToken:  String &lt;br/&gt; refreshTokenTime:  LocalDateTime &lt;br/&gt; rememberToken:  String &lt;br/&gt; secondName:  String &lt;br/&gt; tokenCreatedAt:  LocalDateTime &lt;br/&gt; userName:  String &lt;br/&gt; userType:  String &lt;/p&gt;" style="verticalAlign=top;align=left;overflow=fill;fontSize=12;fontFamily=Helvetica;html=1;rounded=1;shadow=1;comic=0;labelBackgroundColor=none;strokeWidth=2;fillColor=#DAE8FC;strokeColor=#6C8EBF;fontColor=#000000;" parent="1" vertex="1">
                    <mxGeometry x="50" y="320" width="240" height="600" as="geometry"/>
                </mxCell>
                <mxCell id="node12" value="&lt;p style=&quot;margin:0px;margin-top:4px;text-align:center;&quot;&gt;&lt;b&gt;Card&lt;/b&gt;&lt;/p&gt;&lt;hr size=&quot;1&quot;/&gt;&lt;p style=&quot;margin:0 0 0 4px;line-height:1.6;&quot;&gt; backgroundColor:  String &lt;br/&gt; cardDescription:  String &lt;br/&gt; cardLogo:  String &lt;br/&gt; department:  String &lt;br/&gt; email:  String &lt;br/&gt; fontColor:  String &lt;br/&gt; fontStyle:  String &lt;br/&gt; latitude:  String &lt;br/&gt; linkedIn:  String &lt;br/&gt; logoPosition:  String &lt;br/&gt; longitude:  String &lt;br/&gt; organization:  String &lt;br/&gt; phoneNumber:  String &lt;br/&gt; profilePhoto:  String &lt;br/&gt; publishCard:  boolean &lt;br/&gt; selected_address:  String &lt;br/&gt; textPosition:  String &lt;br/&gt; title:  String &lt;br/&gt; websiteUrl:  String &lt;/p&gt;" style="verticalAlign=top;align=left;overflow=fill;fontSize=12;fontFamily=Helvetica;html=1;rounded=1;shadow=1;comic=0;labelBackgroundColor=none;strokeWidth=2;fillColor=#D5E8D4;strokeColor=#82B366;fontColor=#000000;" parent="1" vertex="1">
                    <mxGeometry x="380" y="320" width="200" height="420" as="geometry"/>
                </mxCell>
                <mxCell id="node0" value="&lt;p style=&quot;margin:0px;margin-top:4px;text-align:center;&quot;&gt;&lt;b&gt;Location&lt;/b&gt;&lt;/p&gt;&lt;hr size=&quot;1&quot;/&gt;&lt;p style=&quot;margin:0 0 0 4px;line-height:1.6;&quot;&gt; uuid:  UUID &lt;br/&gt; created:  LocalDateTime &lt;br/&gt; latitude:  Double &lt;br/&gt; location:  Point &lt;br/&gt; longitude:  Double &lt;br/&gt; userId:  UUID &lt;/p&gt;" style="verticalAlign=top;align=left;overflow=fill;fontSize=12;fontFamily=Helvetica;html=1;rounded=1;shadow=1;comic=0;labelBackgroundColor=none;strokeWidth=2;fillColor=#FFE6CC;strokeColor=#D79B00;fontColor=#000000;" parent="1" vertex="1">
                    <mxGeometry x="680" y="50" width="180" height="150" as="geometry"/>
                </mxCell>
                <mxCell id="node6" value="&lt;p style=&quot;margin:0px;margin-top:4px;text-align:center;&quot;&gt;&lt;b&gt;DeviceProximity&lt;/b&gt;&lt;/p&gt;&lt;hr size=&quot;1&quot;/&gt;&lt;p style=&quot;margin:0 0 0 4px;line-height:1.6;&quot;&gt; id:  UUID &lt;br/&gt; detectedDeviceId:  String &lt;br/&gt; proximity:  double &lt;br/&gt; proximityTime:  LocalDateTime &lt;br/&gt; userId:  UUID &lt;/p&gt;" style="verticalAlign=top;align=left;overflow=fill;fontSize=12;fontFamily=Helvetica;html=1;rounded=1;shadow=1;comic=0;labelBackgroundColor=none;strokeWidth=2;fillColor=#FFF2CC;strokeColor=#D6B656;fontColor=#000000;" parent="1" vertex="1">
                    <mxGeometry x="680" y="250" width="200" height="140" as="geometry"/>
                </mxCell>
                <mxCell id="node2" value="&lt;p style=&quot;margin:0px;margin-top:4px;text-align:center;&quot;&gt;&lt;b&gt;MyCards&lt;/b&gt;&lt;/p&gt;&lt;hr size=&quot;1&quot;/&gt;&lt;p style=&quot;margin:0 0 0 4px;line-height:1.6;&quot;&gt; favourites:  Boolean &lt;/p&gt;" style="verticalAlign=top;align=left;overflow=fill;fontSize=12;fontFamily=Helvetica;html=1;rounded=1;shadow=1;comic=0;labelBackgroundColor=none;strokeWidth=2;fillColor=#F8CECC;strokeColor=#B85450;fontColor=#000000;" parent="1" vertex="1">
                    <mxGeometry x="50" y="980" width="160" height="80" as="geometry"/>
                </mxCell>
                <mxCell id="node11" value="&lt;p style=&quot;margin:0px;margin-top:4px;text-align:center;&quot;&gt;&lt;b&gt;SavedCard&lt;/b&gt;&lt;/p&gt;&lt;hr size=&quot;1&quot;/&gt;&lt;p style=&quot;margin:0 0 0 4px;line-height:1.6;&quot;&gt; id:  Long &lt;br/&gt; savedDate:  LocalDateTime &lt;/p&gt;" style="verticalAlign=top;align=left;overflow=fill;fontSize=12;fontFamily=Helvetica;html=1;rounded=1;shadow=1;comic=0;labelBackgroundColor=none;strokeWidth=2;fillColor=#E6F3FF;strokeColor=#6699CC;fontColor=#000000;" parent="1" vertex="1">
                    <mxGeometry x="270" y="980" width="180" height="80" as="geometry"/>
                </mxCell>
                <mxCell id="node7" value="&lt;p style=&quot;margin:0px;margin-top:4px;text-align:center;&quot;&gt;&lt;b&gt;Notification&lt;/b&gt;&lt;/p&gt;&lt;hr size=&quot;1&quot;/&gt;&lt;p style=&quot;margin:0 0 0 4px;line-height:1.6;&quot;&gt; id:  Long &lt;br/&gt; createdAt:  LocalDateTime &lt;br/&gt; isRead:  boolean &lt;br/&gt; message:  String &lt;br/&gt; type:  String &lt;/p&gt;" style="verticalAlign=top;align=left;overflow=fill;fontSize=12;fontFamily=Helvetica;html=1;rounded=1;shadow=1;comic=0;labelBackgroundColor=none;strokeWidth=2;fillColor=#FFE6E6;strokeColor=#CC6666;fontColor=#000000;" parent="1" vertex="1">
                    <mxGeometry x="500" y="980" width="180" height="140" as="geometry"/>
                </mxCell>
                <mxCell id="node10" value="&lt;p style=&quot;margin:0px;margin-top:4px;text-align:center;&quot;&gt;&lt;b&gt;card_groups&lt;/b&gt;&lt;/p&gt;&lt;hr size=&quot;1&quot;/&gt;&lt;p style=&quot;margin:0 0 0 4px;line-height:1.6;&quot;&gt; groupName:  String &lt;/p&gt;" style="verticalAlign=top;align=left;overflow=fill;fontSize=12;fontFamily=Helvetica;html=1;rounded=1;shadow=1;comic=0;labelBackgroundColor=none;strokeWidth=2;fillColor=#E6F7FF;strokeColor=#40A9FF;fontColor=#000000;" parent="1" vertex="1">
                    <mxGeometry x="680" y="450" width="160" height="80" as="geometry"/>
                </mxCell>
                <mxCell id="node3" value="&lt;p style=&quot;margin:0px;margin-top:4px;text-align:center;&quot;&gt;&lt;b&gt;card_links&lt;/b&gt;&lt;/p&gt;&lt;hr size=&quot;1&quot;/&gt;&lt;p style=&quot;margin:0 0 0 4px;line-height:1.6;&quot;&gt; qrCodeUrl:  String &lt;br/&gt; url:  String &lt;br/&gt; userUuid:  String &lt;/p&gt;" style="verticalAlign=top;align=left;overflow=fill;fontSize=12;fontFamily=Helvetica;html=1;rounded=1;shadow=1;comic=0;labelBackgroundColor=none;strokeWidth=2;fillColor=#E0F2F1;strokeColor=#26A69A;fontColor=#000000;" parent="1" vertex="1">
                    <mxGeometry x="680" y="570" width="160" height="100" as="geometry"/>
                </mxCell>
                <mxCell id="node9" value="&lt;p style=&quot;margin:0px;margin-top:4px;text-align:center;&quot;&gt;&lt;b&gt;card_rate_stats&lt;/b&gt;&lt;/p&gt;&lt;hr size=&quot;1&quot;/&gt;&lt;p style=&quot;margin:0 0 0 4px;line-height:1.6;&quot;&gt; id:  Long &lt;br/&gt; negativeCounts:  Long &lt;br/&gt; neutralCounts:  Long &lt;br/&gt; positiveCount:  Long &lt;br/&gt; uuid:  UUID &lt;/p&gt;" style="verticalAlign=top;align=left;overflow=fill;fontSize=12;fontFamily=Helvetica;html=1;rounded=1;shadow=1;comic=0;labelBackgroundColor=none;strokeWidth=2;fillColor=#F0F8E8;strokeColor=#8BC34A;fontColor=#000000;" parent="1" vertex="1">
                    <mxGeometry x="680" y="720" width="180" height="140" as="geometry"/>
                </mxCell>
                <mxCell id="node4" value="&lt;p style=&quot;margin:0px;margin-top:4px;text-align:center;&quot;&gt;&lt;b&gt;AbstractAuditable&lt;/b&gt;&lt;/p&gt;&lt;hr size=&quot;1&quot;/&gt;&lt;p style=&quot;margin:0 0 0 4px;line-height:1.6;&quot;&gt; createdDate:  Date &lt;br/&gt; lastModifiedDate:  Date &lt;/p&gt;" style="verticalAlign=top;align=left;overflow=fill;fontSize=12;fontFamily=Helvetica;html=1;rounded=1;shadow=1;comic=0;labelBackgroundColor=none;strokeWidth=2;fillColor=#F5F5F5;strokeColor=#666666;fontColor=#000000;" parent="1" vertex="1">
                    <mxGeometry x="410" y="780" width="180" height="80" as="geometry"/>
                </mxCell>
                <mxCell id="node5" value="&lt;p style=&quot;margin:0px;margin-top:4px;text-align:center;&quot;&gt;&lt;b&gt;AbstractPersistable&lt;/b&gt;&lt;/p&gt;&lt;hr size=&quot;1&quot;/&gt;&lt;p style=&quot;margin:0 0 0 4px;line-height:1.6;&quot;&gt; id:  PK &lt;/p&gt;" style="verticalAlign=top;align=left;overflow=fill;fontSize=12;fontFamily=Helvetica;html=1;rounded=1;shadow=1;comic=0;labelBackgroundColor=none;strokeWidth=2;fillColor=#F5F5F5;strokeColor=#666666;fontColor=#000000;" parent="1" vertex="1">
                    <mxGeometry x="410" y="900" width="180" height="60" as="geometry"/>
                </mxCell>
                <mxCell id="edge1" style="html=1;rounded=1;edgeStyle=orthogonalEdgeStyle;dashed=0;startArrow=none;endArrow=block;endSize=12;endFill=0;strokeColor=#666666;strokeWidth=2;exitX=0.5;exitY=1;exitDx=0;exitDy=0;entryX=0.5;entryY=0;entryDx=0;entryDy=0;" parent="1" source="node4" target="node5" edge="1">
                    <mxGeometry relative="1" as="geometry"/>
                </mxCell>
                <mxCell id="edge2" style="html=1;rounded=1;edgeStyle=orthogonalEdgeStyle;dashed=0;startArrow=none;endArrow=block;endSize=12;endFill=0;strokeColor=#9673A6;strokeWidth=2;exitX=0.5;exitY=0;exitDx=0;exitDy=0;entryX=0;entryY=0.5;entryDx=0;entryDy=0;" parent="1" source="node8" target="node1" edge="1">
                    <mxGeometry relative="1" as="geometry"/>
                </mxCell>
                <mxCell id="edge3" style="html=1;rounded=1;edgeStyle=orthogonalEdgeStyle;dashed=0;startArrow=none;endArrow=block;endSize=12;endFill=0;strokeColor=#9673A6;strokeWidth=2;exitX=0.5;exitY=0;exitDx=0;exitDy=0;entryX=0.5;entryY=1;entryDx=0;entryDy=0;" parent="1" source="node12" target="node1" edge="1">
                    <mxGeometry relative="1" as="geometry"/>
                </mxCell>
                <mxCell id="edge4" style="html=1;rounded=1;edgeStyle=orthogonalEdgeStyle;dashed=0;startArrow=none;endArrow=classic;endSize=12;strokeColor=#2196F3;strokeWidth=3;exitX=1;exitY=0.3;exitDx=0;exitDy=0;entryX=0;entryY=0.3;entryDx=0;entryDy=0;" parent="1" source="node8" target="node12" edge="1">
                    <mxGeometry relative="1" as="geometry"/>
                </mxCell>
                <mxCell id="edge4_label" value="1:M" style="edgeLabel;html=1;align=center;verticalAlign=middle;resizable=0;points=[];fontSize=10;fontStyle=1;fontColor=#2196F3;" parent="edge4" vertex="1" connectable="0">
                    <mxGeometry x="-0.1" y="-1" relative="1" as="geometry">
                        <mxPoint x="5" y="-10" as="offset"/>
                    </mxGeometry>
                </mxCell>
                <mxCell id="edge5" style="html=1;rounded=1;edgeStyle=orthogonalEdgeStyle;dashed=0;startArrow=none;endArrow=classic;endSize=12;strokeColor=#FF5722;strokeWidth=3;exitX=0;exitY=1;exitDx=0;exitDy=0;entryX=0.5;entryY=0;entryDx=0;entryDy=0;" parent="1" source="node12" target="node2" edge="1">
                    <mxGeometry relative="1" as="geometry"/>
                </mxCell>
                <mxCell id="edge5_label" value="1:M" style="edgeLabel;html=1;align=center;verticalAlign=middle;resizable=0;points=[];fontSize=10;fontStyle=1;fontColor=#FF5722;" parent="edge5" vertex="1" connectable="0">
                    <mxGeometry x="-0.1" y="-1" relative="1" as="geometry">
                        <mxPoint x="5" y="-10" as="offset"/>
                    </mxGeometry>
                </mxCell>
                <mxCell id="edge6" style="html=1;rounded=1;edgeStyle=orthogonalEdgeStyle;dashed=0;startArrow=none;endArrow=classic;endSize=12;strokeColor=#4CAF50;strokeWidth=3;exitX=0.5;exitY=1;exitDx=0;exitDy=0;entryX=0;entryY=0.5;entryDx=0;entryDy=0;" parent="1" source="node8" target="node11" edge="1">
                    <mxGeometry relative="1" as="geometry"/>
                </mxCell>
                <mxCell id="edge6_label" value="1:M" style="edgeLabel;html=1;align=center;verticalAlign=middle;resizable=0;points=[];fontSize=10;fontStyle=1;fontColor=#4CAF50;" parent="edge6" vertex="1" connectable="0">
                    <mxGeometry x="-0.1" y="-1" relative="1" as="geometry">
                        <mxPoint x="5" y="-10" as="offset"/>
                    </mxGeometry>
                </mxCell>
                <mxCell id="edge7" style="html=1;rounded=1;edgeStyle=orthogonalEdgeStyle;dashed=0;startArrow=none;endArrow=classic;endSize=12;strokeColor=#9C27B0;strokeWidth=3;exitX=1;exitY=1;exitDx=0;exitDy=0;entryX=0;entryY=0.5;entryDx=0;entryDy=0;" parent="1" source="node8" target="node7" edge="1">
                    <mxGeometry relative="1" as="geometry"/>
                </mxCell>
                <mxCell id="edge7_label" value="1:M" style="edgeLabel;html=1;align=center;verticalAlign=middle;resizable=0;points=[];fontSize=10;fontStyle=1;fontColor=#9C27B0;" parent="edge7" vertex="1" connectable="0">
                    <mxGeometry x="-0.1" y="-1" relative="1" as="geometry">
                        <mxPoint x="5" y="-10" as="offset"/>
                    </mxGeometry>
                </mxCell>
                <mxCell id="edge8" style="html=1;rounded=1;edgeStyle=orthogonalEdgeStyle;dashed=0;startArrow=classic;startSize=12;endArrow=classic;endSize=12;strokeColor=#FF9800;strokeWidth=3;exitX=1;exitY=0.5;exitDx=0;exitDy=0;entryX=0;entryY=0.5;entryDx=0;entryDy=0;" parent="1" source="node12" target="node10" edge="1">
                    <mxGeometry relative="1" as="geometry"/>
                </mxCell>
                <mxCell id="edge8_label" value="M:M" style="edgeLabel;html=1;align=center;verticalAlign=middle;resizable=0;points=[];fontSize=10;fontStyle=1;fontColor=#FF9800;" parent="edge8" vertex="1" connectable="0">
                    <mxGeometry x="-0.1" y="-1" relative="1" as="geometry">
                        <mxPoint x="5" y="-10" as="offset"/>
                    </mxGeometry>
                </mxCell>
                <mxCell id="edge9" style="html=1;rounded=1;edgeStyle=orthogonalEdgeStyle;dashed=0;startArrow=none;endArrow=classic;endSize=12;strokeColor=#607D8B;strokeWidth=3;exitX=1;exitY=0.8;exitDx=0;exitDy=0;entryX=0;entryY=0.5;entryDx=0;entryDy=0;" parent="1" source="node12" target="node3" edge="1">
                    <mxGeometry relative="1" as="geometry"/>
                </mxCell>
                <mxCell id="edge9_label" value="1:1" style="edgeLabel;html=1;align=center;verticalAlign=middle;resizable=0;points=[];fontSize=10;fontStyle=1;fontColor=#607D8B;" parent="edge9" vertex="1" connectable="0">
                    <mxGeometry x="-0.1" y="-1" relative="1" as="geometry">
                        <mxPoint x="5" y="-10" as="offset"/>
                    </mxGeometry>
                </mxCell>
                <mxCell id="edge10" style="html=1;rounded=1;edgeStyle=orthogonalEdgeStyle;dashed=0;startArrow=none;endArrow=classic;endSize=12;strokeColor=#795548;strokeWidth=3;exitX=1;exitY=1;exitDx=0;exitDy=0;entryX=0;entryY=0.3;entryDx=0;entryDy=0;" parent="1" source="node12" target="node9" edge="1">
                    <mxGeometry relative="1" as="geometry"/>
                </mxCell>
                <mxCell id="edge10_label" value="1:1" style="edgeLabel;html=1;align=center;verticalAlign=middle;resizable=0;points=[];fontSize=10;fontStyle=1;fontColor=#795548;" parent="edge10" vertex="1" connectable="0">
                    <mxGeometry x="-0.1" y="-1" relative="1" as="geometry">
                        <mxPoint x="5" y="-10" as="offset"/>
                    </mxGeometry>
                </mxCell>
                <mxCell id="edge11" style="html=1;rounded=1;edgeStyle=orthogonalEdgeStyle;dashed=0;startArrow=none;endArrow=classic;endSize=12;strokeColor=#E91E63;strokeWidth=3;exitX=1;exitY=0.1;exitDx=0;exitDy=0;entryX=0;entryY=0.5;entryDx=0;entryDy=0;" parent="1" source="node8" target="node0" edge="1">
                    <mxGeometry relative="1" as="geometry">
                        <Array as="points">
                            <mxPoint x="350" y="360"/>
                            <mxPoint x="350" y="125"/>
                        </Array>
                    </mxGeometry>
                </mxCell>
                <mxCell id="edge11_label" value="1:M" style="edgeLabel;html=1;align=center;verticalAlign=middle;resizable=0;points=[];fontSize=10;fontStyle=1;fontColor=#E91E63;" parent="edge11" vertex="1" connectable="0">
                    <mxGeometry x="-0.1" y="-1" relative="1" as="geometry">
                        <mxPoint x="5" y="-10" as="offset"/>
                    </mxGeometry>
                </mxCell>
                <mxCell id="edge12" style="html=1;rounded=1;edgeStyle=orthogonalEdgeStyle;dashed=0;startArrow=none;endArrow=classic;endSize=12;strokeColor=#8BC34A;strokeWidth=3;exitX=1;exitY=0.2;exitDx=0;exitDy=0;entryX=0;entryY=0.5;entryDx=0;entryDy=0;" parent="1" source="node8" target="node6" edge="1">
                    <mxGeometry relative="1" as="geometry">
                        <Array as="points">
                            <mxPoint x="350" y="380"/>
                            <mxPoint x="350" y="320"/>
                        </Array>
                    </mxGeometry>
                </mxCell>
                <mxCell id="edge12_label" value="1:M" style="edgeLabel;html=1;align=center;verticalAlign=middle;resizable=0;points=[];fontSize=10;fontStyle=1;fontColor=#8BC34A;" parent="edge12" vertex="1" connectable="0">
                    <mxGeometry x="-0.1" y="-1" relative="1" as="geometry">
                        <mxPoint x="5" y="-10" as="offset"/>
                    </mxGeometry>
                </mxCell>
            </root>
        </mxGraphModel>
    </diagram>
</mxfile>